<svg width="25" height="25" viewBox="0 0 25 25" fill="none" xmlns="http://www.w3.org/2000/svg">
<path fill-rule="evenodd" clip-rule="evenodd" d="M12.499 0C5.59725 0 0 5.73805 0 12.8167C0 18.4784 3.58135 23.2825 8.54857 24.9781C9.17398 25.0954 9.4019 24.6995 9.4019 24.3596C9.4019 24.0552 9.39102 23.2495 9.3845 22.1802C5.90751 22.9544 5.17391 20.4619 5.17391 20.4619C4.60528 18.9812 3.78572 18.587 3.78572 18.587C2.65077 17.7924 3.87164 17.8081 3.87164 17.8081C5.12629 17.8986 5.78624 19.1291 5.78624 19.1291C6.90124 21.0874 8.71224 20.5217 9.42437 20.1936C9.53791 19.366 9.861 18.801 10.2178 18.4808C7.44225 18.1567 4.52391 17.0575 4.52391 12.1464C4.52391 10.7467 5.0112 9.60351 5.8108 8.70737C5.68181 8.3832 5.25291 7.08026 5.9337 5.3155C5.9337 5.3155 6.98269 4.97092 9.37077 6.62869C10.3676 6.34465 11.4373 6.20303 12.5001 6.19752C13.5622 6.20198 14.6311 6.34471 15.6295 6.62869C18.016 4.97092 19.0635 5.3155 19.0635 5.3155C19.7457 7.08026 19.3167 8.3832 19.1885 8.70737C19.9897 9.60351 20.4731 10.7467 20.4731 12.1464C20.4731 17.0701 17.5502 18.1535 14.7662 18.4705C15.2143 18.8663 15.6141 19.6484 15.6141 20.8443C15.6141 22.5571 15.5989 23.9395 15.5989 24.3596C15.5989 24.7027 15.8245 25.1016 16.4583 24.9765C21.4217 23.2778 25 18.4777 25 12.8167C25 5.73805 19.4028 0 12.4987 0" fill="#191919"/>
</svg>
