<svg width="62" height="62" viewBox="0 0 62 62" fill="none" xmlns="http://www.w3.org/2000/svg">
<path d="M36.89 51.15C38.626 54.56 42.098 57.164 47.492 57.164C53.072 57.164 57.164 54.25 57.164 49.042C57.164 44.144 54.374 41.974 49.414 39.866L47.988 39.246C45.508 38.13 44.392 37.448 44.392 35.712C44.392 34.286 45.508 33.232 47.182 33.232C48.856 33.232 49.91 33.914 50.902 35.712L55.49 32.798C53.568 29.388 50.902 28.148 47.182 28.148C41.974 28.148 38.626 31.434 38.626 35.836C38.626 40.548 41.416 42.842 45.632 44.578L47.12 45.198C49.786 46.376 51.336 47.12 51.336 49.104C51.336 50.778 49.786 51.956 47.368 51.956C44.516 51.956 42.904 50.468 41.664 48.422L36.89 51.15ZM16.306 51.832C17.67 54.746 20.398 57.164 25.048 57.164C30.194 57.164 33.728 54.374 33.728 48.36V28.458H27.9V48.236C27.9 51.15 26.722 51.956 24.8 51.956C22.816 51.956 21.948 50.53 21.08 48.918L16.306 51.832ZM0 0H62V62H0V0Z" fill="#191919"/>
</svg>
