<svg width="62" height="26" viewBox="0 0 62 26" fill="none" xmlns="http://www.w3.org/2000/svg">
<path d="M59.3549 9.48302C59.3549 7.53706 59.665 6.38846 59.665 4.30011C59.665 1.05367 58.4441 0.00949237 55.7409 0.00949237H53.7547V2.30668H54.3651C55.7409 2.30668 56.0413 2.75283 56.0413 4.40453C56.0413 5.95181 55.8862 7.49909 55.8862 9.29317C55.8862 11.5904 56.6517 12.4827 58.1728 12.8339V12.9858C56.642 13.337 55.8862 14.2293 55.8862 16.5265C55.8862 18.3206 56.0413 19.7729 56.0413 21.4151C56.0413 23.1143 55.6828 23.5604 54.3651 23.5604V23.6079H53.7547V26H55.7409C58.4344 26 59.665 24.9558 59.665 21.7094C59.665 19.5641 59.3549 18.4629 59.3549 16.5265C59.3549 15.4823 60.0138 14.3812 62 14.2862V11.6948C60.0138 11.6283 59.3549 10.5272 59.3549 9.48302ZM49.1233 12.5206C47.5924 11.9226 46.1682 11.5714 46.1682 10.5747C46.1682 9.82475 46.7786 9.3786 47.9025 9.3786C49.0264 9.3786 50.0438 9.82475 51.158 10.6221L53.1927 7.98321C51.9234 7.03395 50.1891 6.03724 47.8443 6.03724C44.3854 6.03724 42.0406 7.98321 42.0406 10.7265C42.0406 13.1661 44.2303 14.4191 46.0616 15.1121C47.6409 15.7101 49.1717 16.2132 49.1717 17.2099C49.1717 17.9598 48.5613 18.4534 47.1855 18.4534C45.9162 18.4534 44.6373 17.9503 43.2614 16.9062L41.2268 19.8014C42.7576 21.0449 45.0927 21.8992 47.0305 21.8992C51.0999 21.8992 53.2896 19.8014 53.2896 17.058C53.2896 14.3147 51.1095 13.1661 49.1233 12.5206ZM14.3494 18.1592C13.9909 18.1592 13.5356 17.8554 13.5356 16.9157V0H6.30755C3.55587 0 2.33505 1.04418 2.33505 4.29062C2.33505 6.43593 2.6451 7.63198 2.6451 9.47353C2.6451 10.5177 1.98625 11.6188 0 11.7138V14.3052C1.98625 14.3527 2.6451 15.4538 2.6451 16.498C2.6451 18.3395 2.33505 19.4407 2.33505 21.586C2.33505 24.8324 3.55587 25.8766 6.2591 25.8766H8.24535V23.5794H7.63494C6.36568 23.5794 5.95874 23.0763 5.95874 21.4341C5.95874 19.7919 6.11377 18.387 6.11377 16.5455C6.11377 14.2483 5.34834 13.356 3.82716 13.0047V12.8529C5.35802 12.5016 6.11377 11.6093 6.11377 9.31216C6.11377 7.51807 5.95874 6.06572 5.95874 4.42351C5.95874 2.78131 6.31724 2.32567 7.63494 2.32567H9.00109V16.6404C9.00109 19.6875 10.0669 21.6809 13.1771 21.6809C14.146 21.6809 14.9114 21.529 15.4637 21.3297L14.9501 18.0832C14.6498 18.1592 14.5045 18.1592 14.3494 18.1592ZM36.7989 12.5206C35.2196 11.9226 33.7953 11.5714 33.7953 10.5747C33.7953 9.82475 34.4057 9.3786 35.5296 9.3786C36.6535 9.3786 37.6709 9.82475 38.7851 10.6221L40.8198 7.98321C39.5506 7.03395 37.8162 6.03724 35.4715 6.03724C32.0125 6.03724 29.6678 7.98321 29.6678 10.7265C29.6678 13.1661 31.8575 14.4191 33.6887 15.1121C35.268 15.7101 36.7989 16.2132 36.7989 17.2099C36.7989 17.9598 36.1885 18.4534 34.8126 18.4534C33.5434 18.4534 32.2644 17.9503 30.8886 16.9062L28.9023 19.8014C30.4332 21.0449 32.7682 21.8992 34.706 21.8992C38.7754 21.8992 40.9651 19.8014 40.9651 17.058C40.9748 14.3147 38.7851 13.1661 36.7989 12.5206ZM21.7809 5.98978C18.0603 5.98978 14.5045 9.03688 14.6013 13.8211C14.6013 18.7572 17.915 21.6524 22.2847 21.6524C24.116 21.6524 26.1506 21.0069 27.73 19.9533L26.1991 17.3143C25.0752 17.9598 24.0094 18.2636 22.8855 18.2636C20.8508 18.2636 19.2714 17.3143 18.8645 15.0172H28.0884C28.1369 14.6659 28.2435 13.973 28.2435 13.1756C28.3016 9.1318 26.0538 5.98978 21.7809 5.98978ZM18.8742 12.2738C19.1842 10.2804 20.4051 9.33114 21.8293 9.33114C23.6606 9.33114 24.3776 10.5747 24.3776 12.2738H18.8742Z" fill="#191919"/>
</svg>
