<svg width="40" height="20" viewBox="0 0 40 20" fill="none" xmlns="http://www.w3.org/2000/svg">
<path d="M10.0474 3.98103H3.03315L0 19.3366H3.60193L4.36026 15.3555H7.77251C10.9953 15.5451 14.5971 12.8912 14.5971 8.34123C14.5971 5.68719 13.0806 4.17059 10.0474 3.98103ZM7.39341 12.5118H5.11847L6.06629 6.82469H8.53078C9.85777 6.82469 10.8057 7.39335 10.8057 8.53078C10.6161 11.7536 9.0995 12.3221 7.39341 12.5118ZM13.4597 15.3554L16.4928 0H20.0948L19.3364 3.98103H22.7488C25.782 4.17059 26.9193 5.68719 26.5402 7.58296L25.2132 15.3554H21.4218L22.7488 8.34117C22.9384 7.39329 22.9384 6.82463 21.6113 6.82463H18.7678L17.0616 15.3554H13.4597ZM35.4501 3.98103H28.4359L25.4027 19.3366H29.0047L29.7628 15.3555H33.1752C36.3979 15.5451 40 12.8912 40 8.34111C40 5.68719 38.4834 4.17059 35.4501 3.98103ZM32.7962 12.5118H30.5213L31.4693 6.82469H33.9335C35.2606 6.82469 36.2085 7.39335 36.2085 8.53078C36.0189 11.7536 34.5022 12.3221 32.7962 12.5118Z" fill="#191919"/>
</svg>
