<svg width="62" height="55" viewBox="0 0 62 55" fill="none" xmlns="http://www.w3.org/2000/svg">
<path d="M25.471 27.4388C25.471 24.3911 27.9541 21.9156 31.011 21.9156C34.068 21.9156 36.5511 24.3911 36.5511 27.4388C36.5511 30.4865 34.068 32.962 31.011 32.962C27.9541 32.962 25.471 30.4865 25.471 27.4388ZM62 27.4388C62 31.2347 57.5084 35.0745 50.2688 37.4621C49.8936 37.5831 49.5073 37.7041 49.11 37.8251C49.2535 38.3863 49.3749 38.9364 49.4852 39.4755C50.1584 42.8863 50.2688 46.055 49.7942 48.6296C49.2866 51.3692 48.1388 53.3166 46.4834 54.2738C45.6558 54.7579 44.6735 55 43.581 55C40.5792 55 36.7718 53.1956 32.7989 49.7848C32.236 49.3007 31.6842 48.7946 31.1214 48.2555C30.691 48.6736 30.2606 49.0697 29.8302 49.4438C27.2036 51.7323 24.4998 53.4046 22.0278 54.2738C20.7366 54.7359 19.5226 54.967 18.4411 54.967C17.3154 54.967 16.3222 54.7249 15.4834 54.2408C12.3161 52.4144 11.2125 47.1552 12.5479 40.1687C12.6803 39.4535 12.8459 38.7163 13.0335 37.9682C12.4486 37.8031 11.8857 37.6271 11.345 37.4401C8.04521 36.3178 5.24208 34.8215 3.24457 33.1161C1.12567 31.3117 0 29.3422 0 27.4388C0 23.786 4.01709 20.2102 10.7601 17.8777C11.4995 17.6246 12.272 17.3825 13.0666 17.1515C12.89 16.4583 12.7355 15.7762 12.6031 15.105C11.9519 11.7823 11.8305 8.7346 12.2499 6.28104C12.7134 3.60744 13.806 1.70401 15.4283 0.768804C18.717 -1.13462 24.3122 0.823816 30.0068 5.87395C30.3489 6.18202 30.691 6.50109 31.0441 6.83117C31.5628 6.33606 32.0815 5.86295 32.5892 5.41185C35.1495 3.18935 37.743 1.56098 40.0826 0.702789C42.6319 -0.232421 44.8391 -0.232421 46.4503 0.691787C49.7501 2.58421 50.8427 8.39352 49.2976 15.8312C49.2093 16.2823 49.099 16.7334 48.9886 17.1955C49.6728 17.3935 50.335 17.6026 50.9751 17.8226C54.1865 18.9229 56.8904 20.3532 58.8106 21.9376C60.8964 23.676 62 25.5794 62 27.4388ZM32.8982 8.71259C34.6639 10.605 36.4297 12.8055 38.1292 15.2261C41.0538 15.5011 43.8459 15.9412 46.4283 16.5354C46.5276 16.1173 46.6269 15.7102 46.7042 15.3031C48.1499 8.2945 46.9028 4.00353 45.126 2.9803C44.2211 2.46319 42.7533 2.5292 40.9875 3.17835C38.9459 3.92651 36.6394 5.38984 34.3218 7.4033C33.8473 7.81039 33.3727 8.25049 32.8982 8.71259ZM16.3111 36.0647C18.0769 36.4498 19.9861 36.7579 22.0167 36.9779C21.3546 35.9437 20.7035 34.8875 20.0744 33.8092C19.4564 32.753 18.8715 31.6858 18.3197 30.6185C17.5361 32.4669 16.8519 34.3043 16.3111 36.0647ZM20.0744 21.2004C20.6924 20.1442 21.3215 19.0989 21.9726 18.0867C20.0082 18.3288 18.121 18.6588 16.3443 19.0439C16.885 20.7823 17.5472 22.5757 18.3197 24.4021C18.8715 23.3349 19.4564 22.2676 20.0744 21.2004ZM22.3699 32.4889C23.33 34.1393 24.3453 35.7457 25.4048 37.275C27.2036 37.385 29.0797 37.4511 31.011 37.4511C32.9534 37.4511 34.8516 37.385 36.6835 37.253C37.6878 35.7457 38.681 34.1503 39.6632 32.4669C40.6344 30.7946 41.5283 29.1112 42.3339 27.4608C41.5283 25.8434 40.6454 24.1931 39.6632 22.5097C38.7031 20.8483 37.6988 19.264 36.6725 17.7456C34.8295 17.6026 32.9313 17.5366 31.011 17.5366C29.1129 17.5366 27.2147 17.6136 25.3606 17.7566C24.3232 19.275 23.3079 20.8703 22.3588 22.5207C21.4098 24.1601 20.5269 25.8324 19.7213 27.5048C20.5269 29.1662 21.4098 30.8386 22.3699 32.4889ZM40.0605 36.9339C42.1022 36.6919 44.0445 36.3618 45.8434 35.9547C45.2916 34.2273 44.5963 32.4009 43.7576 30.5085C43.1947 31.5977 42.5878 32.698 41.9587 33.7872C41.3297 34.8655 40.7006 35.9217 40.0605 36.9339ZM45.7109 19.0769C43.9231 18.6698 42.0249 18.3398 40.0495 18.0867C40.6896 19.0879 41.3186 20.1222 41.9366 21.1784C42.5657 22.2676 43.1616 23.3459 43.7245 24.4021C44.508 22.5757 45.1812 20.7823 45.7109 19.0769ZM27.3581 14.984C28.5611 14.929 29.775 14.896 31 14.896C32.2471 14.896 33.4721 14.929 34.697 14.984C33.4941 13.3886 32.2691 11.9143 31.0441 10.594C29.7971 11.9253 28.5611 13.3996 27.3581 14.984ZM15.2075 14.5989C15.3289 15.2261 15.4724 15.8532 15.6379 16.5023C18.2093 15.9192 21.0014 15.4901 23.926 15.2151C25.6255 12.8275 27.4023 10.638 29.2011 8.70159C28.8921 8.40452 28.5831 8.11846 28.2741 7.8544C22.8886 3.10133 18.5404 2.03409 16.7636 3.05732C15.8587 3.57443 15.1855 4.88373 14.8654 6.73214C14.5012 8.86662 14.6116 11.5952 15.2075 14.5989ZM16.7967 27.5158C15.5717 24.8532 14.5454 22.2236 13.7729 19.7041C13.0335 19.9131 12.3272 20.1332 11.6429 20.3752C5.44073 22.5317 2.65967 25.4804 2.65967 27.4498C2.65967 29.4963 5.65041 32.72 12.2058 34.9535C12.7024 35.1185 13.21 35.2836 13.7398 35.4376C14.5233 32.874 15.5497 30.2114 16.7967 27.5158ZM29.2674 46.3741C27.4464 44.4376 25.6586 42.2261 23.948 39.8166C20.9242 39.5745 18.121 39.1674 15.6048 38.6063C15.4283 39.3105 15.2848 39.9926 15.1524 40.6528C13.9274 47.0892 15.1082 50.9621 16.8078 51.9413C18.5846 52.9645 22.8775 51.9963 28.0975 47.4413C28.4728 47.1112 28.8701 46.7481 29.2674 46.3741ZM34.7522 40.0036C33.5272 40.0586 32.2691 40.0916 31.011 40.0916C29.775 40.0916 28.5721 40.0696 27.3912 40.0256C28.6162 41.632 29.8633 43.1173 31.1214 44.4706C32.3243 43.1393 33.5493 41.654 34.7522 40.0036ZM46.9028 39.9926C46.8035 39.4975 46.6931 39.0024 46.5607 38.4853C44.0004 39.0794 41.1752 39.5085 38.1734 39.7726C36.4628 42.2481 34.7081 44.4596 32.9754 46.3521C33.4941 46.8582 34.0239 47.3313 34.5315 47.7714C39.5087 52.0403 43.4596 52.9645 45.1702 51.9743C46.947 50.9621 48.2492 46.7701 46.9028 39.9926ZM59.3624 27.4388C59.3624 26.3936 58.5678 25.1613 57.1221 23.962C55.4557 22.5757 53.0278 21.3104 50.1253 20.3092C49.5294 20.1112 48.9114 19.9131 48.2823 19.7261C47.5208 22.1796 46.5055 24.7872 45.2585 27.4498C46.5607 30.1894 47.6202 32.819 48.3927 35.2726C48.7458 35.1625 49.099 35.0525 49.4411 34.9425C56.2503 32.698 59.3624 29.4743 59.3624 27.4388Z" fill="#191919"/>
</svg>
