<svg width="63" height="46" viewBox="0 0 63 46" fill="none" xmlns="http://www.w3.org/2000/svg">
<path d="M54.236 26.4398C52.0317 26.4494 50.1225 26.9668 48.5283 27.7334C47.9477 26.5931 47.3474 25.5965 47.249 24.8491C47.1309 23.9771 47.0029 23.4596 47.1407 22.4247C47.2785 21.3898 47.8985 19.9236 47.8886 19.8182C47.8788 19.7128 47.7508 19.1858 46.4814 19.1762C45.2119 19.1666 44.1195 19.4158 43.9916 19.7416C43.8637 20.0674 43.6177 20.8052 43.47 21.5718C43.2437 22.693 40.9311 26.6985 39.6222 28.7875C39.1892 27.973 38.8251 27.2543 38.7464 26.6793C38.6283 25.8073 38.5004 25.2899 38.6381 24.255C38.7759 23.22 39.3959 21.7539 39.386 21.6485C39.3762 21.5431 39.2483 21.016 37.9788 21.0065C36.7093 20.9969 35.617 21.246 35.489 21.5718C35.3611 21.8976 35.2233 22.6642 34.9675 23.4021C34.7116 24.14 31.6314 30.8094 30.8244 32.5439C30.4111 33.4255 30.0568 34.1346 29.801 34.6137C29.5451 35.0928 29.7813 34.6424 29.7616 34.6999C29.5451 35.112 29.4172 35.342 29.4172 35.342V35.3515C29.2499 35.6582 29.0629 35.9361 28.9743 35.9361C28.9153 35.9361 28.7873 35.1311 29.0038 34.0292C29.4664 31.7102 30.5587 28.1071 30.5489 27.9826C30.539 27.9155 30.7555 27.2926 29.8305 26.9572C28.935 26.641 28.6102 27.168 28.5315 27.168C28.4527 27.168 28.3937 27.3597 28.3937 27.3597C28.3937 27.3597 29.3876 23.2967 26.4846 23.2967C24.6738 23.2967 22.1545 25.2324 20.9146 26.986C20.1371 27.398 18.4543 28.2892 16.683 29.2379C16.0039 29.602 15.3052 29.9757 14.6459 30.3303C14.5967 30.2824 14.5573 30.2345 14.5081 30.1866C10.9851 26.526 4.48019 23.9387 4.75574 19.0229C4.85415 17.2309 5.49381 12.5259 17.2636 6.8147C26.9077 2.13842 34.623 3.42248 35.9515 6.27808C37.8607 10.3507 31.8282 17.9305 21.8101 19.0229C17.9918 19.4349 15.9843 17.9975 15.4824 17.4609C14.9608 16.8956 14.8821 16.8668 14.6853 16.9722C14.3605 17.1447 14.5672 17.643 14.6853 17.9401C14.9805 18.6971 16.2106 20.0386 18.3067 20.7094C20.147 21.2939 24.6246 21.6198 30.0371 19.5787C36.1188 17.298 40.8523 10.9448 39.4648 5.62647C38.0477 0.221908 28.8464 -1.55086 20.1371 1.45806C14.951 3.25 9.34162 6.06727 5.30683 9.73738C0.514287 14.107 -0.253307 17.9113 0.0616035 19.502C1.18347 25.1461 9.17432 28.8258 12.3726 31.5473C12.2152 31.6335 12.0676 31.7102 11.9298 31.7868C10.3257 32.563 4.23417 35.6678 2.70882 38.945C0.986653 42.663 2.99421 45.327 4.31289 45.6911C8.42641 46.8027 12.6383 44.7999 14.9018 41.5131C17.1652 38.2263 16.8896 33.9333 15.8465 31.9785C15.8366 31.9497 15.817 31.9306 15.8071 31.9018C16.2204 31.6623 16.6436 31.4227 17.0668 31.1831C17.8836 30.7136 18.6807 30.2824 19.3794 29.9087C18.9858 30.9436 18.7004 32.1893 18.5527 33.9908C18.3756 36.099 19.2711 38.83 20.4324 39.9033C20.9441 40.3728 21.5641 40.3824 21.9479 40.3824C23.3059 40.3824 23.9161 39.29 24.5951 37.9867C25.4316 36.396 26.1696 34.5466 26.1696 34.5466C26.1696 34.5466 25.2446 39.5487 27.7737 39.5487C28.6988 39.5487 29.6238 38.3892 30.0371 37.7951V37.8047C30.0371 37.8047 30.0568 37.7663 30.106 37.6897C30.2044 37.546 30.2536 37.4597 30.2536 37.4597V37.431C30.6276 36.8081 31.4444 35.3803 32.6745 33.023C34.2687 29.9757 35.7941 26.1715 35.7941 26.1715C35.7941 26.1715 35.9319 27.101 36.4042 28.6438C36.6798 29.5541 37.2604 30.5507 37.7229 31.5185C37.349 32.0168 37.1226 32.3043 37.1226 32.3043C37.1226 32.3043 37.1226 32.3139 37.1325 32.3235C36.8372 32.7068 36.5026 33.1188 36.1582 33.5213C34.8986 34.9778 33.4027 36.6452 33.2059 37.1243C32.9697 37.6897 33.0288 38.1113 33.4815 38.4371C33.8161 38.6863 34.4065 38.7246 35.0265 38.6767C36.1582 38.6 36.9553 38.3317 37.3391 38.1592C37.9493 37.9484 38.6578 37.613 39.327 37.1435C40.5571 36.2619 41.305 34.997 41.2361 33.3296C41.1968 32.4097 40.8917 31.4898 40.5178 30.6273C40.626 30.474 40.7441 30.3111 40.8523 30.1482C42.8009 27.3789 44.3065 24.3412 44.3065 24.3412C44.3065 24.3412 44.4443 25.2707 44.9167 26.8135C45.1528 27.5897 45.6154 28.4425 46.0385 29.2762C44.2081 30.7232 43.0764 32.4001 42.6828 33.5021C41.9545 35.5432 42.5253 36.4631 43.598 36.6739C44.0802 36.7698 44.769 36.5494 45.2808 36.3386C45.9204 36.1277 46.688 35.7923 47.4064 35.2749C48.6365 34.3933 49.8273 33.1571 49.7486 31.4802C49.719 30.7232 49.5025 29.9662 49.2172 29.2379C50.7622 28.6054 52.7697 28.2605 55.3284 28.5479C60.8098 29.1708 61.8825 32.5055 61.6758 33.895C61.4691 35.2941 60.3177 36.0607 59.9339 36.2906C59.5501 36.5206 59.4321 36.6069 59.4616 36.7793C59.5108 37.0285 59.6879 37.0189 60.0127 36.9614C60.4654 36.8848 62.8862 35.8307 62.9945 33.253C63.1519 29.9949 59.9339 26.411 54.236 26.4398ZM11.9888 40.3057C10.1781 42.2318 7.63914 42.9601 6.54679 42.3468C5.37572 41.6856 5.83824 38.8492 8.07214 36.7985C9.43019 35.5528 11.1819 34.4029 12.3431 33.6938C12.6088 33.5404 12.9926 33.3105 13.465 33.0326C13.5437 32.9847 13.5831 32.9655 13.5831 32.9655C13.6716 32.908 13.77 32.8601 13.8685 32.8026C14.6853 35.7157 13.898 38.2838 11.9888 40.3057ZM25.2151 31.5473C24.5853 33.0517 23.2567 36.8848 22.4498 36.6835C21.7609 36.511 21.3377 33.5884 22.312 30.7136C22.804 29.2666 23.8472 27.5418 24.4672 26.871C25.4611 25.7882 26.5534 25.4432 26.8093 25.8744C27.1537 26.4398 25.6087 30.6082 25.2151 31.5473ZM36.1385 36.626C35.8728 36.7602 35.6268 36.8464 35.5087 36.7793C35.4201 36.7314 35.617 36.5494 35.617 36.5494C35.617 36.5494 36.9848 35.1216 37.5261 34.47C37.841 34.0867 38.2051 33.6363 38.5988 33.138C38.5988 33.1859 38.6086 33.2338 38.6086 33.2913C38.5988 35.0066 36.9061 36.1661 36.1385 36.626ZM44.5624 34.7574C44.3656 34.6233 44.3951 34.1729 45.0544 32.7738C45.3103 32.2276 45.9007 31.3077 46.9242 30.4261C47.0423 30.7903 47.1112 31.1352 47.1112 31.461C47.1013 33.6171 45.517 34.422 44.5624 34.7574Z" fill="#191919"/>
</svg>
