<svg width="63" height="71" viewBox="0 0 63 71" fill="none" xmlns="http://www.w3.org/2000/svg">
<path d="M55.179 13.8239C55.228 14.1809 63 66.2534 63 66.2534L40.8602 71L0 63.413C0 63.413 5.24372 23.2252 5.44228 21.8084C5.7053 19.9371 5.76861 19.8743 7.77263 19.2515C8.09838 19.15 10.6492 18.3663 14.2394 17.2638C15.6235 11.4466 20.0379 0 29.2776 0C30.4845 0 31.8819 0.642229 33.0099 2.12061C33.1227 2.11434 33.2355 2.10977 33.3449 2.10977C37.3115 2.10977 39.5659 5.45781 40.8436 9.10072C42.1483 8.7009 42.9368 8.45963 42.984 8.44594C43.3022 8.35297 44.1224 8.22635 44.5425 8.64272C44.9621 9.05908 48.7865 12.8218 48.7865 12.8218C48.7865 12.8218 54.2933 13.2262 54.5534 13.2478C54.8141 13.2695 55.1295 13.4669 55.179 13.8239ZM38.5852 9.79314C37.7092 7.14095 36.348 4.83668 34.3043 4.5823C34.8131 6.0276 35.1302 7.85048 35.1302 10.1148C35.1302 10.3743 35.1291 10.6122 35.1279 10.8534C36.3924 10.4656 37.559 10.108 38.5852 9.79314ZM31.7691 5.03118C29.5158 5.98939 26.9386 8.52922 25.5636 13.788C28.0125 13.0362 30.4557 12.2868 32.7043 11.5966C32.7055 11.4672 32.7066 11.3394 32.7066 11.1997C32.7066 8.46705 32.3371 6.44226 31.7691 5.03118ZM29.0238 2.45599C22.3872 2.45599 18.6589 11.0913 17.0888 16.3888C18.8592 15.8453 20.774 15.2578 22.7331 14.6566C24.0736 7.71132 27.2476 4.23324 30.2088 2.85239C29.8243 2.59002 29.4226 2.45599 29.0238 2.45599ZM33.3449 25.3709C33.3449 25.3709 31.4997 24.3106 27.7645 24.3106C18.0707 24.3106 13.2684 30.7272 13.2684 37.3577C13.2684 45.2355 21.1999 45.4494 21.1999 50.2439C21.1999 51.4029 20.3729 52.9891 18.3401 52.9891C15.2287 52.9891 11.5418 49.8521 11.5418 49.8521L9.66384 56.0011C9.66384 56.0011 13.2506 60.3274 20.2647 60.3274C26.1098 60.3274 30.4448 55.9658 30.4448 49.1927C30.4448 40.5836 20.7769 39.1754 20.7769 35.5C20.7769 34.8264 20.9933 32.1531 25.2914 32.1531C28.2232 32.1531 30.6151 33.4182 30.6151 33.4182L33.3449 25.3709Z" fill="#191919"/>
</svg>
