<svg width="62" height="62" viewBox="0 0 62 62" fill="none" xmlns="http://www.w3.org/2000/svg">
<path d="M0 31V62H62V0H0V31ZM49.9621 28.52C51.447 28.8646 52.7967 29.6413 53.8408 30.752C54.4156 31.3504 54.9153 32.0166 55.3288 32.736C55.3288 32.8154 52.6504 34.6258 51.0186 35.6376C50.959 35.6773 50.721 35.4194 50.4581 35.0275C50.1602 34.5135 49.7369 34.0833 49.2278 33.7772C48.7187 33.471 48.1403 33.2988 47.5466 33.2766C45.6667 33.1477 44.4565 34.1347 44.4664 35.7566C44.4509 36.1605 44.5433 36.5611 44.7342 36.9173C45.1459 37.7754 45.9147 38.2862 48.3253 39.3278C52.7645 41.2374 54.6642 42.4973 55.8446 44.2878C57.164 46.2718 57.4566 49.476 56.5638 51.8469C55.5718 54.4261 53.1414 56.177 49.7042 56.7573C48.1342 56.9371 46.548 56.9204 44.9822 56.7077C42.5824 56.3121 40.3718 55.1599 38.6731 53.4192C38.1027 52.7893 36.9917 51.1475 37.0611 51.0285C37.2422 50.8941 37.4328 50.773 37.6315 50.6664L39.928 49.3966L41.7086 48.365L42.0806 48.9155C42.7084 49.8136 43.5074 50.5788 44.4317 51.1674C46.4157 52.209 49.1238 52.0651 50.463 50.8598C50.9127 50.4182 51.1932 49.8328 51.2557 49.2057C51.3183 48.5785 51.1589 47.9493 50.8053 47.4275C50.3093 46.7381 49.3173 46.1578 46.5446 44.9475C43.3454 43.5686 41.9666 42.7155 40.7067 41.3565C39.9202 40.4597 39.3396 39.4016 39.0054 38.2565C38.7562 36.9483 38.7194 35.6084 38.8963 34.2885C39.556 31.1984 41.8723 29.0408 45.255 28.401C46.8216 28.2071 48.4085 28.2506 49.9621 28.5299V28.52ZM35.4094 31.119V33.6586H27.3594V56.5886H21.6504V33.6536H13.5805V31.1736C13.5553 30.3184 13.5752 29.4624 13.64 28.6093C13.6797 28.5646 18.6 28.5646 24.552 28.5646H35.3797L35.4094 31.119Z" fill="#191919"/>
</svg>
