<svg width="62" height="62" viewBox="0 0 62 62" fill="none" xmlns="http://www.w3.org/2000/svg">
<path d="M7.47148 20.5133L19.7625 54.1773C11.1648 50.0117 5.24336 41.1961 5.24336 31C5.24336 27.2582 6.04258 23.7223 7.47148 20.5133ZM48.3891 29.7043C48.3891 26.5195 47.2508 24.3156 46.2699 22.5961C44.9621 20.477 43.7391 18.6727 43.7391 16.5535C43.7391 14.1801 45.5312 11.9762 48.0621 11.9762C48.1711 11.9762 48.2801 11.9883 48.4012 12.0004C43.8117 7.79844 37.7086 5.23125 31 5.23125C22.0027 5.23125 14.0832 9.84492 9.46953 16.8441C10.075 16.8684 10.6441 16.8805 11.1285 16.8805C13.8168 16.8805 17.9945 16.5535 17.9945 16.5535C19.3871 16.4688 19.5445 18.5152 18.1641 18.6727C18.1641 18.6727 16.7715 18.8301 15.2215 18.9148L24.6062 46.8148L30.2492 29.9102L26.241 18.9148C24.8484 18.8301 23.5406 18.6727 23.5406 18.6727C22.148 18.5879 22.3176 16.4688 23.698 16.5535C23.698 16.5535 27.9484 16.8805 30.4793 16.8805C33.1676 16.8805 37.3453 16.5535 37.3453 16.5535C38.7379 16.4688 38.8953 18.5152 37.5148 18.6727C37.5148 18.6727 36.1223 18.8301 34.5723 18.9148L43.8844 46.609L46.4516 38.0234C47.5414 34.4633 48.3891 31.9082 48.3891 29.7043ZM31.448 33.2523L23.7223 55.7152C26.0352 56.3934 28.4691 56.7687 31 56.7687C34.0031 56.7687 36.873 56.248 39.5492 55.3035C39.4766 55.1945 39.416 55.0734 39.3676 54.9523L31.448 33.2523ZM53.6082 18.6363C53.7172 19.4598 53.7777 20.3316 53.7777 21.2883C53.7777 23.9039 53.2934 26.8344 51.816 30.5156L43.9449 53.2691C51.6102 48.8008 56.7566 40.5059 56.7566 31C56.7566 26.5195 55.6184 22.3055 53.6082 18.6363ZM61.0312 31C61.0312 47.5656 47.5535 61.0312 31 61.0312C14.4344 61.0312 0.96875 47.5535 0.96875 31C0.96875 14.4344 14.4344 0.96875 31 0.96875C47.5535 0.96875 61.0312 14.4344 61.0312 31ZM59.6508 31C59.6508 15.1973 46.7906 2.34922 31 2.34922C15.1973 2.34922 2.34922 15.1973 2.34922 31C2.34922 46.8027 15.2094 59.6508 31 59.6508C46.8027 59.6508 59.6508 46.8027 59.6508 31Z" fill="#191919"/>
</svg>
